<svg xmlns="http://www.w3.org/2000/svg" width="995" height="1221" viewBox="0 0 995 1221">
  <defs>
    <style>
      .cls-1 {
        fill-rule: evenodd;
      }
    </style>
  </defs>
  <path id="Shape_317_1" data-name="Shape 317 1" class="cls-1" d="M601.945,218.387c5.6,1.252,15.975,1.695,21.988,4.12,3.192,1.288,7.722,5.929,11,6.868L658.29,228c1.763-2.846,4.123-6.868,4.123-6.868s-7.2-8.708-12.368-10.989c-18.2-5.459-25.8-6.691-49.474-8.241C572.006,200.283,517,200.5,497.5,200.53c-21.278.036-74.506-.247-103.071,1.374-23.671,1.55-31.269,2.782-49.474,8.241-5.168,2.281-12.368,10.989-12.368,10.989s2.36,4.022,4.123,6.868l23.362,1.373c3.273-.939,7.8-5.58,10.994-6.868,6.014-2.425,16.385-2.868,21.989-4.12,27.941-.458,76.5-0.916,104.445-1.374C530.784,217.013,574,217.929,601.945,218.387ZM750.367,539.8c-0.592-.447-12.642,14.226-16.491,23.35-11.6,27.5-10.774,64.851-11,103.019h2.749c19.8-20.165,43.354-29.719,39.854-70.053-0.458-10.072.234-20.3-1.374-30.218C757.827,534.418,749.32,540.153,750.367,539.8ZM311.973,953.25v39.834H200.656V1195h-53.6c-0.458-66.84-1.374-.44-1.374-201.916H34.369V953.25h277.6Zm314.709,59.06-49.474,8.25c-0.458-8.24-.916-17.86-1.374-26.1H391.681V1151.05H574.46c0-54.81.458-36.64,0-54.95-29.065-.01-59.7.06-90.7,0v-39.83H626.682v105.76c-0.539,8.15-5.865,17.15-13.743,24.73-9.851,9.04-15.927,8.24-38.479,8.24H391.681c-30.088,0-38.114-.6-48.1-24.72-7.33-19.59-2.749-85.73-2.749-167.58,0-14.812.179-27.058,11-37.087,9.739-8.067,24.11-11.172,39.854-12.363h197.9c9.328-.107,13.511,2,19.239,5.5C624.29,967.5,626.935,987.235,626.682,1012.31Zm343.569,12.37c-52.884,15.44-.673.17-52.222,15.11V994.458H759.987V1151.05H918.029c0-50.39-.181-57.56,0-50.83,52.5,15.16.669-.23,52.222,15.11,0,37.23.185,29.76,0,41.21-1.629,15-1.6,14.88-9.62,26.1-8.016,9.15-19.056,12.36-42.6,12.36h-186.9c-9.333-3.43-9.765-5.16-17.323-13.85-6.643-9.62-5.815-13.61-6.04-30.1V994.458c1.748-17.682,3.625-20.793,9.62-28.845,11.041-10.12,13.573-12.789,34.8-12.789,185.641,0,128.583.3,182.61,0.3,24.22,6.493,22.362,8.345,28.583,16.607C971.788,984.556,970.485,1001.65,970.251,1024.68ZM523.611,42.569c17.934,7.935,37.174,14.675,54.971,21.977,24.206,9.931,49.266,13,70.088,26.1,60.658,38.163,91.1,106.314,111.317,185.433q1.374,17.855,2.748,35.713c8.961,40.833,1.593,98.54,0,140.1-0.443,11.575-9.259,55.668-5.5,61.811,7.247,13.766,19.75,24.374,26.112,39.833,21.307,51.781-21.632,105.393-49.474,126.37-5.232,3.942-23.28,16.15-26.112,20.6-2.593,14.258-4.186,16.693-19.239,37.087-21.189,27.068-61.233,31.809-108.568,31.592v53.57s28.036,0.458,28.859,1.373c0.677,2.387,26.112,48.075,26.112,48.075,28.478,0,74.407-3.226,145.673-13.735-29.813-56.922-.024.633-30.234-57.691,17.552-8.407,35.072-18.079,56.345-23.351,13.281-3.29,30.213-1.185,41.229,1.374,64.76,15.043,83.351,42.447,107.193,97.524,5.969,13.789,15.551,28.5,17.866,45.328-316.052-.458-634.948-0.458-951,0,2.315-16.825,11.9-31.539,17.866-45.328,23.842-55.077,42.434-82.481,107.193-97.524,11.016-2.559,27.948-4.664,41.229-1.374,21.273,5.272,38.793,14.944,56.345,23.351-30.21,58.324-.421.769-30.234,57.691,71.266,10.509,117.2,13.735,145.673,13.735,0,0,25.435-45.688,26.112-48.075,0.823-.915,28.859-1.373,28.859-1.373v-53.57c-47.335.217-87.379-4.524-108.568-31.592-15.053-20.394-16.646-22.829-19.239-37.087-2.832-4.453-20.88-16.661-26.112-20.6-27.842-20.977-70.781-74.589-49.474-126.37,6.362-15.459,18.865-26.067,26.112-39.833,3.762-6.143-5.054-50.236-5.5-61.811-1.592-41.565-8.96-99.272,0-140.1q1.374-17.855,2.749-35.713c20.219-79.119,50.659-147.27,111.316-185.433,20.823-13.1,45.883-16.167,70.089-26.1,7.7-3.161,15.56-5.453,23.582-8.546,2.436-.939,28.838,20.181,26,46,13.984-31.183-12.187-52.1-9.015-53.374,4.859-1.958,9.677-3.966,14.4-6.058,8.641-3.823,25.488-16.59,25.488-16.59l0.623,1.481S514.677,38.616,523.611,42.569ZM497.5,240.364c-15.047,0-84.84-1.347-97.574,1.373h-37.1c-23.954,5.153-46.706,4.645-63.217,16.483-11.1,7.959-29.9,31.346-34.357,45.328q-0.687,31.59-1.374,63.185c-2.907,13.518-2.044,37.255,0,50.822v21.978c7.711,35.646,7.3,72.894,21.988,101.644,0.959,1.877,12.216,19.045,13.743,20.6,5.537,5.652,14.31,7.376,19.24,13.736,6.325,0.113,18.674.715,20.614,0,26.63,0.666,45.924,5,54.971-13.736,46.113-.909,160.029-0.909,206.142,0,9.047,18.734,28.341,14.4,54.971,13.736,1.94,0.715,14.289.113,20.614,0,4.93-6.36,13.7-8.084,19.24-13.736,1.527-1.559,12.784-18.727,13.743-20.6,14.692-28.75,14.276-66,21.988-101.644V417.555c2.044-13.567,2.907-37.3,0-50.822q-0.687-31.589-1.374-63.185C725.3,289.566,706.5,266.179,695.4,258.22c-16.511-11.838-39.263-11.33-63.217-16.483H595.074c-12.734-2.72-82.527-1.373-97.574-1.373m65.965,509.6c2.916-3.63,7.739-3.693,11-6.868,5.611-5.472,18.127-26.552,20.614-34.339q0.687-62.492,1.374-125c-4.629-3.141-7.73-11.636-12.369-13.736H410.921c-4.639,2.1-7.74,10.595-12.369,13.736q0.687,62.491,1.374,125c2.486,7.787,15,28.867,20.614,34.339,3.256,3.175,8.079,3.238,11,6.868h131.93Zm9.62-167.576s8.994-.048,9.62,10.988V697.765c-0.035,15.427-17.045,38.46-26.111,38.46H438.406c-9.066,0-26.076-23.033-26.111-38.46V593.373c0.626-11.036,9.62-10.988,9.62-10.988h151.17ZM244.633,539.8c0.592-.447,12.642,14.226,16.491,23.35,11.6,27.5,10.774,64.851,10.994,103.019H269.37c-19.8-20.165-43.354-29.719-39.854-70.053,0.458-10.072-.234-20.3,1.374-30.218C237.173,534.418,245.68,540.153,244.633,539.8Z"/>
</svg>
